# Blender 5.0.1
# www.blender.org
mtllib Cuckoo1.mtl
o Cuckoo1
v -0.226754 -2.759710 0.372468
v -0.077316 -2.759710 0.372468
v -0.077316 0.168689 0.372468
v -0.226754 0.168689 0.372468
v -0.226754 0.168689 0.372468
v -0.077316 0.168689 0.372468
v -0.077316 0.168689 0.257510
v -0.226754 0.168689 0.257510
v -0.226754 0.168689 0.257510
v -0.077316 0.168689 0.257510
v -0.077316 -2.759710 0.257510
v -0.226754 -2.759710 0.257510
v -0.226754 -2.759710 0.257510
v -0.077316 -2.759710 0.257510
v -0.077316 -2.759710 0.372468
v -0.226754 -2.759710 0.372468
v -0.077316 -2.759710 0.372468
v -0.077316 -2.759710 0.257510
v -0.077316 0.168689 0.257510
v -0.077316 0.168689 0.372468
v -0.226754 -2.759710 0.257510
v -0.226754 -2.759710 0.372468
v -0.226754 0.168689 0.372468
v -0.226754 0.168689 0.257510
v -0.349295 -2.463585 0.203028
v -0.249415 -2.412694 0.203028
v -0.138697 -2.753448 0.203028
v -0.428561 -2.542850 0.203028
v -0.479452 -2.642731 0.203028
v -0.496988 -2.753448 0.203028
v -0.479452 -2.864168 0.203028
v -0.428561 -2.964048 0.203028
v -0.349295 -3.043313 0.203028
v -0.249415 -3.094205 0.203028
v -0.138697 -3.111741 0.203028
v -0.027979 -3.094205 0.203028
v 0.071902 -3.043313 0.203028
v 0.151167 -2.964048 0.203028
v 0.202059 -2.864168 0.203028
v 0.219595 -2.753448 0.203028
v 0.202059 -2.642731 0.203028
v 0.151167 -2.542850 0.203028
v 0.071902 -2.463585 0.203028
v -0.027979 -2.412694 0.203028
v -0.138697 -2.395158 0.203028
v -0.249415 -2.412694 0.393745
v -0.349295 -2.463585 0.393745
v -0.138697 -2.753448 0.393745
v -0.428561 -2.542850 0.393745
v -0.479452 -2.642731 0.393745
v -0.496988 -2.753448 0.393745
v -0.479452 -2.864168 0.393746
v -0.428561 -2.964048 0.393746
v -0.349295 -3.043313 0.393746
v -0.249415 -3.094205 0.393746
v -0.138697 -3.111741 0.393746
v -0.027979 -3.094205 0.393746
v 0.071902 -3.043313 0.393746
v 0.151167 -2.964048 0.393746
v 0.202059 -2.864168 0.393746
v 0.219595 -2.753448 0.393745
v 0.202059 -2.642731 0.393745
v 0.151167 -2.542850 0.393745
v 0.071902 -2.463585 0.393745
v -0.027979 -2.412694 0.393745
v -0.138697 -2.395158 0.393745
v -0.249415 -2.412694 0.203028
v -0.349295 -2.463585 0.203028
v -0.349295 -2.463585 0.393745
v -0.249415 -2.412694 0.393745
v -0.428561 -2.542850 0.203028
v -0.428561 -2.542850 0.393745
v -0.479452 -2.642731 0.203028
v -0.479452 -2.642731 0.393745
v -0.496988 -2.753448 0.203028
v -0.496988 -2.753448 0.393745
v -0.479452 -2.864168 0.203028
v -0.479452 -2.864168 0.393746
v -0.428561 -2.964048 0.203028
v -0.428561 -2.964048 0.393746
v -0.349295 -3.043313 0.203028
v -0.349295 -3.043313 0.393746
v -0.249415 -3.094205 0.203028
v -0.249415 -3.094205 0.393746
v -0.138697 -3.111741 0.203028
v -0.138697 -3.111741 0.393746
v -0.027979 -3.094205 0.203028
v -0.027979 -3.094205 0.393746
v 0.071902 -3.043313 0.203028
v 0.071902 -3.043313 0.393746
v 0.151167 -2.964048 0.203028
v 0.151167 -2.964048 0.393746
v 0.202059 -2.864168 0.203028
v 0.202059 -2.864168 0.393746
v 0.219595 -2.753448 0.203028
v 0.219595 -2.753448 0.393745
v 0.202059 -2.642731 0.203028
v 0.202059 -2.642731 0.393745
v 0.151167 -2.542850 0.203028
v 0.151167 -2.542850 0.393745
v 0.071902 -2.463585 0.203028
v 0.071902 -2.463585 0.393745
v -0.027979 -2.412694 0.203028
v -0.027979 -2.412694 0.393745
v -0.138697 -2.395158 0.203028
v -0.138697 -2.395158 0.393745
v -0.249415 -2.412694 0.203028
v -0.249415 -2.412694 0.393745
vn -0.0000 -0.0000 1.0000
vn -0.0000 1.0000 -0.0000
vn -0.0000 -0.0000 -1.0000
vn -0.0000 -1.0000 -0.0000
vn 1.0000 -0.0000 -0.0000
vn -1.0000 -0.0000 -0.0000
vn -0.3090 0.9510 0.0001
vn -0.5878 0.8090 -0.0000
vn -0.3090 0.9510 -0.0000
vn -0.8090 0.5878 -0.0000
vn -0.9511 0.3090 -0.0000
vn -0.9511 -0.3090 -0.0000
vn -0.8090 -0.5878 -0.0000
vn -0.5878 -0.8090 -0.0000
vn -0.3090 -0.9511 -0.0000
vn 0.3090 -0.9511 -0.0000
vn 0.5878 -0.8090 -0.0000
vn 0.8090 -0.5878 -0.0000
vn 0.9511 -0.3090 -0.0000
vn 0.9511 0.3090 -0.0000
vn 0.8090 0.5878 -0.0000
vn 0.5878 0.8090 -0.0000
vn 0.3090 0.9511 -0.0000
vn -0.3089 0.9511 -0.0000
vn -0.3089 0.9511 -0.0001
vt 0.375000 1.000000
vt 0.625000 1.000000
vt 0.625000 0.750000
vt 0.375000 0.750000
vt 0.625000 0.500000
vt 0.375000 0.500000
vt 0.625000 0.250000
vt 0.375000 0.250000
vt 0.625000 0.000000
vt 0.375000 0.000000
vt 0.875000 1.000000
vt 0.875000 0.750000
vt 0.125000 1.000000
vt 0.125000 0.750000
vt 0.626409 0.935592
vt 0.648603 0.892034
vt 0.500000 0.850000
vt 0.591842 0.970159
vt 0.548284 0.992353
vt 0.500000 1.000000
vt 0.451716 0.992353
vt 0.408159 0.970159
vt 0.373591 0.935591
vt 0.351397 0.892034
vt 0.343750 0.843750
vt 0.351397 0.795466
vt 0.373591 0.751909
vt 0.408159 0.717341
vt 0.451716 0.695147
vt 0.500000 0.687500
vt 0.548284 0.695147
vt 0.591841 0.717341
vt 0.626409 0.751909
vt 0.648603 0.795466
vt 0.656250 0.843750
vt 0.648603 0.107966
vt 0.626409 0.064409
vt 0.500000 0.162500
vt 0.591841 0.029841
vt 0.548284 0.007647
vt 0.500000 0.000000
vt 0.451716 0.007647
vt 0.408159 0.029841
vt 0.373591 0.064409
vt 0.351397 0.107966
vt 0.343750 0.156250
vt 0.351397 0.204534
vt 0.373591 0.248091
vt 0.408159 0.282659
vt 0.451716 0.304853
vt 0.500000 0.312500
vt 0.548284 0.304853
vt 0.591842 0.282659
vt 0.626409 0.248092
vt 0.648603 0.204534
vt 0.656250 0.156250
vt 0.375000 0.687500
vt 0.387500 0.687500
vt 0.387500 0.311560
vt 0.375000 0.311560
vt 0.400000 0.687500
vt 0.400000 0.311560
vt 0.412500 0.687500
vt 0.412500 0.311560
vt 0.425000 0.687500
vt 0.425000 0.311560
vt 0.437500 0.687500
vt 0.437500 0.311560
vt 0.450000 0.687500
vt 0.450000 0.311560
vt 0.462500 0.687500
vt 0.462500 0.311560
vt 0.475000 0.687500
vt 0.475000 0.311560
vt 0.487500 0.687500
vt 0.487500 0.311560
vt 0.500000 0.311560
vt 0.512500 0.687500
vt 0.512500 0.311560
vt 0.525000 0.687500
vt 0.525000 0.311560
vt 0.537500 0.687500
vt 0.537500 0.311560
vt 0.550000 0.687500
vt 0.550000 0.311560
vt 0.562500 0.687500
vt 0.562500 0.311560
vt 0.575000 0.687500
vt 0.575000 0.311560
vt 0.587500 0.687500
vt 0.587500 0.311560
vt 0.600000 0.687500
vt 0.600000 0.311560
vt 0.612500 0.687500
vt 0.612500 0.311560
vt 0.625000 0.687500
vt 0.625000 0.311560
s 1
usemtl aiStandardSurface8
f 1/1/1 2/2/1 3/3/1
f 1/1/1 3/3/1 4/4/1
f 5/4/2 6/3/2 7/5/2
f 5/4/2 7/5/2 8/6/2
f 9/6/3 10/5/3 11/7/3
f 9/6/3 11/7/3 12/8/3
f 13/8/4 14/7/4 15/9/4
f 13/8/4 15/9/4 16/10/4
f 17/2/5 18/11/5 19/12/5
f 17/2/5 19/12/5 20/3/5
f 21/13/6 22/1/6 23/4/6
f 21/13/6 23/4/6 24/14/6
usemtl aiStandardSurface9
f 25/15/3 26/16/3 27/17/3
f 28/18/3 25/15/3 27/17/3
f 29/19/3 28/18/3 27/17/3
f 30/20/3 29/19/3 27/17/3
f 31/21/3 30/20/3 27/17/3
f 32/22/3 31/21/3 27/17/3
f 33/23/3 32/22/3 27/17/3
f 34/24/3 33/23/3 27/17/3
f 35/25/3 34/24/3 27/17/3
f 36/26/3 35/25/3 27/17/3
f 37/27/3 36/26/3 27/17/3
f 38/28/3 37/27/3 27/17/3
f 39/29/3 38/28/3 27/17/3
f 40/30/3 39/29/3 27/17/3
f 41/31/3 40/30/3 27/17/3
f 42/32/3 41/31/3 27/17/3
f 43/33/3 42/32/3 27/17/3
f 44/34/3 43/33/3 27/17/3
f 45/35/3 44/34/3 27/17/3
f 26/16/3 45/35/3 27/17/3
f 46/36/1 47/37/1 48/38/1
f 47/37/1 49/39/1 48/38/1
f 49/39/1 50/40/1 48/38/1
f 50/40/1 51/41/1 48/38/1
f 51/41/1 52/42/1 48/38/1
f 52/42/1 53/43/1 48/38/1
f 53/43/1 54/44/1 48/38/1
f 54/44/1 55/45/1 48/38/1
f 55/45/1 56/46/1 48/38/1
f 56/46/1 57/47/1 48/38/1
f 57/47/1 58/48/1 48/38/1
f 58/48/1 59/49/1 48/38/1
f 59/49/1 60/50/1 48/38/1
f 60/50/1 61/51/1 48/38/1
f 61/51/1 62/52/1 48/38/1
f 62/52/1 63/53/1 48/38/1
f 63/53/1 64/54/1 48/38/1
f 64/54/1 65/55/1 48/38/1
f 65/55/1 66/56/1 48/38/1
f 66/56/1 46/36/1 48/38/1
f 67/57/7 68/58/8 69/59/8
f 67/57/7 69/59/8 70/60/9
f 68/58/8 71/61/10 72/62/10
f 68/58/8 72/62/10 69/59/8
f 71/61/10 73/63/11 74/64/11
f 71/61/10 74/64/11 72/62/10
f 73/63/11 75/65/6 76/66/6
f 73/63/11 76/66/6 74/64/11
f 75/65/6 77/67/12 78/68/12
f 75/65/6 78/68/12 76/66/6
f 77/67/12 79/69/13 80/70/13
f 77/67/12 80/70/13 78/68/12
f 79/69/13 81/71/14 82/72/14
f 79/69/13 82/72/14 80/70/13
f 81/71/14 83/73/15 84/74/15
f 81/71/14 84/74/15 82/72/14
f 83/73/15 85/75/4 86/76/4
f 83/73/15 86/76/4 84/74/15
f 85/75/4 87/30/16 88/77/16
f 85/75/4 88/77/16 86/76/4
f 87/30/16 89/78/17 90/79/17
f 87/30/16 90/79/17 88/77/16
f 89/78/17 91/80/18 92/81/18
f 89/78/17 92/81/18 90/79/17
f 91/80/18 93/82/19 94/83/19
f 91/80/18 94/83/19 92/81/18
f 93/82/19 95/84/5 96/85/5
f 93/82/19 96/85/5 94/83/19
f 95/84/5 97/86/20 98/87/20
f 95/84/5 98/87/20 96/85/5
f 97/86/20 99/88/21 100/89/21
f 97/86/20 100/89/21 98/87/20
f 99/88/21 101/90/22 102/91/22
f 99/88/21 102/91/22 100/89/21
f 101/90/22 103/92/23 104/93/23
f 101/90/22 104/93/23 102/91/22
f 103/92/23 105/94/2 106/95/2
f 103/92/23 106/95/2 104/93/23
f 105/94/2 107/96/24 108/97/25
f 105/94/2 108/97/25 106/95/2
